<svg width="145" height="145" viewBox="0 0 145 145" fill="none" xmlns="http://www.w3.org/2000/svg">
<g id="icon/maps/local_taxi_24px">
<path id="icon/maps/local_taxi_24px_2" fill-rule="evenodd" clip-rule="evenodd" d="M114.308 36.3104C113.1 32.7458 109.717 30.2083 105.729 30.2083H90.625V18.125H54.375V30.2083H39.2708C35.2833 30.2083 31.9604 32.7458 30.6917 36.3104L18.125 72.5V120.833C18.125 124.156 20.8437 126.875 24.1667 126.875H30.2083C33.5312 126.875 36.25 124.156 36.25 120.833V114.792H108.75V120.833C108.75 124.156 111.469 126.875 114.792 126.875H120.833C124.156 126.875 126.875 124.156 126.875 120.833V72.5L114.308 36.3104ZM41.3854 42.2917H103.554L109.837 60.4167H35.1021L41.3854 42.2917ZM30.2083 102.708H114.792V74.5542L114.127 72.5H30.9333L30.2083 74.5542V102.708ZM45.3125 78.5417C40.3074 78.5417 36.25 82.5991 36.25 87.6042C36.25 92.6093 40.3074 96.6667 45.3125 96.6667C50.3176 96.6667 54.375 92.6093 54.375 87.6042C54.375 82.5991 50.3176 78.5417 45.3125 78.5417ZM90.625 87.6042C90.625 82.5991 94.6824 78.5417 99.6875 78.5417C104.693 78.5417 108.75 82.5991 108.75 87.6042C108.75 92.6093 104.693 96.6667 99.6875 96.6667C94.6824 96.6667 90.625 92.6093 90.625 87.6042Z" fill="#DDDDDD"/>
</g>
</svg>
