<svg width="145" height="145" viewBox="0 0 145 145" fill="none" xmlns="http://www.w3.org/2000/svg">
<g id="icon/maps/directions_bike_24px">
<path id="icon/maps/directions_bike_24px_2" fill-rule="evenodd" clip-rule="evenodd" d="M105.729 22.6563C105.729 29.3021 100.292 34.7396 93.6458 34.7396C87 34.7396 81.5625 29.3021 81.5625 22.6563C81.5625 16.0104 87 10.5729 93.6458 10.5729C100.292 10.5729 105.729 16.0104 105.729 22.6563ZM0 104.219C0 87.3021 13.2917 74.0104 30.2083 74.0104C47.125 74.0104 60.4167 87.3021 60.4167 104.219C60.4167 121.135 47.125 134.427 30.2083 134.427C13.2917 134.427 0 121.135 0 104.219ZM30.2083 125.365C18.7292 125.365 9.0625 115.698 9.0625 104.219C9.0625 92.7396 18.7292 83.0729 30.2083 83.0729C41.6875 83.0729 51.3542 92.7396 51.3542 104.219C51.3542 115.698 41.6875 125.365 30.2083 125.365ZM79.7497 50.4479L65.2497 64.9479L78.5414 78.8438V116.302H66.4581V86.0938L47.1248 69.1771C44.7081 67.3646 43.4998 64.3438 43.4998 60.7188C43.4998 57.6979 44.7081 54.6771 47.1248 52.2604L64.0414 35.3438C65.8539 32.9271 68.8748 31.7188 72.4998 31.7188C76.1248 31.7188 79.1456 32.9271 82.1664 35.3438L93.6456 46.8229C99.0831 52.2604 106.333 55.8854 115.396 55.8854V67.9688C102.708 67.9688 92.4372 63.1354 84.5831 55.2813L79.7497 50.4479ZM114.792 74.0104C97.875 74.0104 84.5833 87.3021 84.5833 104.219C84.5833 121.135 97.875 134.427 114.792 134.427C131.708 134.427 145 121.135 145 104.219C145 87.3021 131.708 74.0104 114.792 74.0104ZM93.6458 104.219C93.6458 115.698 103.312 125.365 114.792 125.365C126.271 125.365 135.938 115.698 135.938 104.219C135.938 92.7396 126.271 83.0729 114.792 83.0729C103.312 83.0729 93.6458 92.7396 93.6458 104.219Z" fill="#DDDDDD"/>
</g>
</svg>
